<svg width="1600" height="900" viewBox="0 0 1600 900" fill="none" xmlns="http://www.w3.org/2000/svg">
  <rect width="1600" height="900" fill="#07111F"/>
  <rect x="60" y="60" width="1480" height="780" rx="36" fill="url(#panel)" stroke="rgba(255,255,255,0.12)"/>
  <circle cx="1310" cy="190" r="180" fill="#4F8CFF" fill-opacity="0.18"/>
  <circle cx="310" cy="720" r="220" fill="#7DD3FC" fill-opacity="0.12"/>
  <rect x="150" y="164" width="406" height="572" rx="28" fill="#0D1B31" stroke="rgba(255,255,255,0.1)"/>
  <rect x="610" y="164" width="840" height="572" rx="28" fill="#081423" stroke="rgba(255,255,255,0.08)"/>
  <rect x="196" y="220" width="314" height="22" rx="11" fill="#9CC2FF" fill-opacity="0.8"/>
  <rect x="196" y="266" width="188" height="14" rx="7" fill="white" fill-opacity="0.45"/>
  <rect x="196" y="332" width="314" height="92" rx="20" fill="#4F8CFF" fill-opacity="0.14" stroke="#4F8CFF" stroke-opacity="0.45"/>
  <rect x="196" y="456" width="314" height="92" rx="20" fill="white" fill-opacity="0.04"/>
  <rect x="196" y="580" width="232" height="44" rx="22" fill="#4F8CFF"/>
  <rect x="664" y="218" width="218" height="18" rx="9" fill="white" fill-opacity="0.68"/>
  <rect x="664" y="262" width="504" height="12" rx="6" fill="white" fill-opacity="0.22"/>
  <rect x="664" y="300" width="734" height="154" rx="24" fill="white" fill-opacity="0.04" stroke="rgba(255,255,255,0.1)"/>
  <rect x="696" y="336" width="196" height="16" rx="8" fill="#9CC2FF" fill-opacity="0.88"/>
  <rect x="696" y="382" width="282" height="12" rx="6" fill="white" fill-opacity="0.28"/>
  <rect x="1016" y="336" width="338" height="86" rx="18" fill="#4F8CFF" fill-opacity="0.12"/>
  <rect x="664" y="484" width="230" height="172" rx="24" fill="white" fill-opacity="0.04"/>
  <rect x="914" y="484" width="230" height="172" rx="24" fill="white" fill-opacity="0.04"/>
  <rect x="1164" y="484" width="230" height="172" rx="24" fill="white" fill-opacity="0.04"/>
  <text x="150" y="120" fill="white" fill-opacity="0.82" font-family="Arial, sans-serif" font-size="28" font-weight="700">QuickHire Product Redesign</text>
  <text x="150" y="800" fill="white" fill-opacity="0.54" font-family="Arial, sans-serif" font-size="24">Hero image placeholder. Replace with final project visual when ready.</text>
  <defs>
    <linearGradient id="panel" x1="130" y1="86" x2="1442" y2="814" gradientUnits="userSpaceOnUse">
      <stop stop-color="#0A162A"/>
      <stop offset="1" stop-color="#09111D"/>
    </linearGradient>
  </defs>
</svg>
