<svg width="1400" height="920" viewBox="0 0 1400 920" fill="none" xmlns="http://www.w3.org/2000/svg"><rect width="1400" height="920" fill="#091221"/><rect x="58" y="58" width="1284" height="804" rx="32" fill="#0D1A2C" stroke="rgba(255,255,255,0.09)"/><circle cx="252" cy="726" r="180" fill="#7DD3FC" fill-opacity="0.13"/><rect x="120" y="122" width="316" height="24" rx="12" fill="#C6DEFF" fill-opacity="0.9"/><rect x="120" y="168" width="212" height="14" rx="7" fill="white" fill-opacity="0.42"/><rect x="120" y="246" width="420" height="552" rx="28" fill="#081321" stroke="rgba(255,255,255,0.08)"/><rect x="584" y="246" width="696" height="552" rx="28" fill="white" fill-opacity="0.04"/><rect x="164" y="296" width="226" height="18" rx="9" fill="white" fill-opacity="0.72"/><rect x="164" y="342" width="254" height="102" rx="20" fill="#4F8CFF" fill-opacity="0.14"/><rect x="164" y="474" width="254" height="102" rx="20" fill="white" fill-opacity="0.05"/><rect x="164" y="606" width="196" height="44" rx="22" fill="#4F8CFF"/><rect x="628" y="294" width="234" height="18" rx="9" fill="white" fill-opacity="0.72"/><rect x="628" y="342" width="376" height="12" rx="6" fill="white" fill-opacity="0.24"/><rect x="628" y="392" width="594" height="140" rx="24" fill="white" fill-opacity="0.05"/><rect x="628" y="566" width="278" height="188" rx="24" fill="white" fill-opacity="0.05"/><rect x="944" y="566" width="278" height="188" rx="24" fill="white" fill-opacity="0.05"/><text x="120" y="94" fill="white" fill-opacity="0.84" font-family="Arial, sans-serif" font-size="28" font-weight="700">QuickHire Image 2</text><text x="120" y="834" fill="white" fill-opacity="0.54" font-family="Arial, sans-serif" font-size="24">Candidate onboarding redesign</text></svg>