<svg width="1400" height="920" viewBox="0 0 1400 920" fill="none" xmlns="http://www.w3.org/2000/svg"><rect width="1400" height="920" fill="#07111E"/><rect x="56" y="56" width="1288" height="808" rx="32" fill="#0D192B" stroke="rgba(255,255,255,0.1)"/><circle cx="248" cy="176" r="146" fill="#7DD3FC" fill-opacity="0.14"/><rect x="120" y="122" width="372" height="24" rx="12" fill="#C6DEFF" fill-opacity="0.92"/><rect x="120" y="168" width="208" height="14" rx="7" fill="white" fill-opacity="0.42"/><rect x="120" y="244" width="492" height="564" rx="28" fill="white" fill-opacity="0.04"/><rect x="650" y="244" width="574" height="564" rx="28" fill="#081321" stroke="rgba(255,255,255,0.08)"/><rect x="164" y="296" width="232" height="18" rx="9" fill="white" fill-opacity="0.72"/><rect x="164" y="342" width="278" height="112" rx="22" fill="#4F8CFF" fill-opacity="0.14"/><rect x="164" y="488" width="214" height="42" rx="21" fill="#4F8CFF"/><rect x="696" y="294" width="244" height="18" rx="9" fill="white" fill-opacity="0.72"/><rect x="696" y="344" width="356" height="12" rx="6" fill="white" fill-opacity="0.24"/><rect x="696" y="394" width="482" height="156" rx="24" fill="white" fill-opacity="0.05"/><rect x="696" y="584" width="222" height="176" rx="22" fill="white" fill-opacity="0.05"/><rect x="956" y="584" width="222" height="176" rx="22" fill="white" fill-opacity="0.05"/><text x="120" y="94" fill="white" fill-opacity="0.84" font-family="Arial, sans-serif" font-size="28" font-weight="700">QuickHire Image 8</text><text x="120" y="836" fill="white" fill-opacity="0.54" font-family="Arial, sans-serif" font-size="24">Final end-to-end platform system</text></svg>