<svg width="1400" height="920" viewBox="0 0 1400 920" fill="none" xmlns="http://www.w3.org/2000/svg"><rect width="1400" height="920" fill="#07111E"/><rect x="54" y="54" width="1292" height="812" rx="32" fill="url(#bg)" stroke="rgba(255,255,255,0.1)"/><circle cx="1110" cy="210" r="168" fill="#4F8CFF" fill-opacity="0.16"/><rect x="122" y="122" width="380" height="24" rx="12" fill="#C4DDFF" fill-opacity="0.9"/><rect x="122" y="168" width="220" height="14" rx="7" fill="white" fill-opacity="0.4"/><rect x="122" y="250" width="1160" height="180" rx="28" fill="white" fill-opacity="0.04"/><rect x="164" y="294" width="232" height="18" rx="9" fill="white" fill-opacity="0.72"/><rect x="164" y="338" width="170" height="12" rx="6" fill="#4F8CFF" fill-opacity="0.92"/><rect x="820" y="282" width="396" height="102" rx="24" fill="#4F8CFF" fill-opacity="0.14"/><rect x="122" y="474" width="258" height="294" rx="24" fill="white" fill-opacity="0.04"/><rect x="410" y="474" width="258" height="294" rx="24" fill="white" fill-opacity="0.04"/><rect x="698" y="474" width="258" height="294" rx="24" fill="white" fill-opacity="0.04"/><rect x="986" y="474" width="296" height="294" rx="24" fill="white" fill-opacity="0.04"/><text x="122" y="94" fill="white" fill-opacity="0.84" font-family="Arial, sans-serif" font-size="28" font-weight="700">QuickHire Image 3</text><text x="122" y="820" fill="white" fill-opacity="0.54" font-family="Arial, sans-serif" font-size="24">Match explanation card system</text><defs><linearGradient id="bg" x1="102" y1="84" x2="1312" y2="840" gradientUnits="userSpaceOnUse"><stop stop-color="#0A1629"/><stop offset="1" stop-color="#09121F"/></linearGradient></defs></svg>