<svg width="1400" height="920" viewBox="0 0 1400 920" fill="none" xmlns="http://www.w3.org/2000/svg"><rect width="1400" height="920" fill="#081120"/><rect x="54" y="54" width="1292" height="812" rx="32" fill="#0D1B2F" stroke="rgba(255,255,255,0.1)"/><circle cx="1230" cy="700" r="170" fill="#4F8CFF" fill-opacity="0.12"/><rect x="120" y="124" width="340" height="24" rx="12" fill="#C5DEFF" fill-opacity="0.9"/><rect x="120" y="170" width="194" height="14" rx="7" fill="white" fill-opacity="0.42"/><rect x="120" y="250" width="500" height="552" rx="28" fill="#091320" stroke="rgba(255,255,255,0.08)"/><rect x="660" y="250" width="620" height="552" rx="28" fill="white" fill-opacity="0.04"/><rect x="164" y="300" width="228" height="18" rx="9" fill="white" fill-opacity="0.72"/><rect x="164" y="346" width="302" height="124" rx="22" fill="#4F8CFF" fill-opacity="0.14" stroke="#4F8CFF" stroke-opacity="0.34"/><rect x="164" y="504" width="212" height="42" rx="21" fill="#4F8CFF"/><rect x="704" y="304" width="252" height="18" rx="9" fill="white" fill-opacity="0.72"/><rect x="704" y="350" width="408" height="12" rx="6" fill="white" fill-opacity="0.24"/><rect x="704" y="400" width="528" height="120" rx="22" fill="white" fill-opacity="0.05"/><rect x="704" y="552" width="244" height="208" rx="22" fill="white" fill-opacity="0.05"/><rect x="988" y="552" width="244" height="208" rx="22" fill="white" fill-opacity="0.05"/><text x="120" y="96" fill="white" fill-opacity="0.84" font-family="Arial, sans-serif" font-size="28" font-weight="700">QuickHire Image 6</text><text x="120" y="838" fill="white" fill-opacity="0.54" font-family="Arial, sans-serif" font-size="24">Employer shortlist prioritization</text></svg>