<svg width="1200" height="900" viewBox="0 0 1200 900" fill="none" xmlns="http://www.w3.org/2000/svg">
  <rect width="1200" height="900" rx="32" fill="#0A1423"/>
  <rect x="48" y="48" width="1104" height="804" rx="28" fill="#0D1B31" stroke="rgba(255,255,255,0.1)"/>
  <circle cx="270" cy="736" r="180" fill="#7DD3FC" fill-opacity="0.12"/>
  <rect x="104" y="114" width="294" height="22" rx="11" fill="#B8D6FF" fill-opacity="0.92"/>
  <rect x="104" y="158" width="182" height="14" rx="7" fill="white" fill-opacity="0.4"/>
  <rect x="104" y="226" width="426" height="560" rx="24" fill="#081423" stroke="rgba(255,255,255,0.08)"/>
  <rect x="564" y="226" width="532" height="560" rx="24" fill="white" fill-opacity="0.04"/>
  <rect x="144" y="272" width="198" height="16" rx="8" fill="white" fill-opacity="0.74"/>
  <rect x="144" y="318" width="246" height="96" rx="18" fill="#4F8CFF" fill-opacity="0.14"/>
  <rect x="144" y="442" width="246" height="96" rx="18" fill="white" fill-opacity="0.05"/>
  <rect x="144" y="566" width="182" height="42" rx="21" fill="#4F8CFF"/>
  <rect x="606" y="278" width="220" height="18" rx="9" fill="white" fill-opacity="0.7"/>
  <rect x="606" y="322" width="334" height="12" rx="6" fill="white" fill-opacity="0.24"/>
  <rect x="606" y="374" width="448" height="128" rx="22" fill="white" fill-opacity="0.05"/>
  <rect x="606" y="536" width="210" height="194" rx="22" fill="white" fill-opacity="0.05"/>
  <rect x="844" y="536" width="210" height="194" rx="22" fill="white" fill-opacity="0.05"/>
  <text x="104" y="86" fill="white" fill-opacity="0.82" font-family="Arial, sans-serif" font-size="26" font-weight="700">QuickHire Image 5</text>
  <text x="104" y="820" fill="white" fill-opacity="0.54" font-family="Arial, sans-serif" font-size="24">Inline case study image placeholder</text>
</svg>
