<svg width="1400" height="920" viewBox="0 0 1400 920" fill="none" xmlns="http://www.w3.org/2000/svg"><rect width="1400" height="920" fill="#091221"/><rect x="54" y="54" width="1292" height="812" rx="32" fill="#0C1728" stroke="rgba(255,255,255,0.1)"/><circle cx="1116" cy="168" r="152" fill="#4F8CFF" fill-opacity="0.15"/><rect x="116" y="120" width="356" height="24" rx="12" fill="#C7DFFF" fill-opacity="0.9"/><rect x="116" y="168" width="222" height="14" rx="7" fill="white" fill-opacity="0.42"/><rect x="116" y="246" width="1180" height="224" rx="28" fill="white" fill-opacity="0.04"/><rect x="160" y="292" width="244" height="18" rx="9" fill="white" fill-opacity="0.72"/><rect x="160" y="336" width="172" height="12" rx="6" fill="#4F8CFF" fill-opacity="0.95"/><rect x="810" y="282" width="420" height="134" rx="24" fill="#4F8CFF" fill-opacity="0.14"/><rect x="116" y="518" width="372" height="256" rx="24" fill="white" fill-opacity="0.04"/><rect x="524" y="518" width="372" height="256" rx="24" fill="white" fill-opacity="0.04"/><rect x="932" y="518" width="364" height="256" rx="24" fill="white" fill-opacity="0.04"/><text x="116" y="92" fill="white" fill-opacity="0.84" font-family="Arial, sans-serif" font-size="28" font-weight="700">QuickHire Image 7</text><text x="116" y="822" fill="white" fill-opacity="0.54" font-family="Arial, sans-serif" font-size="24">Application status transparency</text></svg>