<svg width="1400" height="920" viewBox="0 0 1400 920" fill="none" xmlns="http://www.w3.org/2000/svg"><rect width="1400" height="920" fill="#07111E"/><rect x="54" y="54" width="1292" height="812" rx="32" fill="#0A1729" stroke="rgba(255,255,255,0.1)"/><circle cx="1180" cy="170" r="150" fill="#4F8CFF" fill-opacity="0.16"/><rect x="112" y="120" width="420" height="26" rx="13" fill="#BBD7FF" fill-opacity="0.92"/><rect x="112" y="170" width="248" height="14" rx="7" fill="white" fill-opacity="0.42"/><rect x="112" y="252" width="1176" height="210" rx="28" fill="white" fill-opacity="0.04" stroke="rgba(255,255,255,0.08)"/><rect x="160" y="302" width="248" height="18" rx="9" fill="white" fill-opacity="0.75"/><rect x="160" y="348" width="176" height="12" rx="6" fill="#4F8CFF" fill-opacity="0.95"/><rect x="160" y="390" width="454" height="14" rx="7" fill="white" fill-opacity="0.22"/><rect x="808" y="292" width="384" height="120" rx="24" fill="#4F8CFF" fill-opacity="0.14" stroke="#4F8CFF" stroke-opacity="0.35"/><rect x="112" y="520" width="368" height="268" rx="26" fill="white" fill-opacity="0.04"/><rect x="516" y="520" width="368" height="268" rx="26" fill="white" fill-opacity="0.04"/><rect x="920" y="520" width="368" height="268" rx="26" fill="white" fill-opacity="0.04"/><text x="112" y="92" fill="white" fill-opacity="0.84" font-family="Arial, sans-serif" font-size="28" font-weight="700">QuickHire Image 1</text><text x="112" y="836" fill="white" fill-opacity="0.54" font-family="Arial, sans-serif" font-size="24">Research overview dashboard</text></svg>